<svg width="164" height="54" viewBox="0 0 164 54" fill="none" xmlns="http://www.w3.org/2000/svg">
<g filter="url(#filter0_b_4080_34592)">
<rect width="164" height="54" rx="20" fill="white" fill-opacity="0.08"/>
<path d="M25.88 40.0348C18.6746 40.0348 12.8335 34.1937 12.8335 26.9883C12.8335 19.7829 18.6746 13.9418 25.88 13.9418C26.2516 13.9418 26.3637 14.4304 26.0525 14.6335C22.0211 17.2645 19.3568 21.8152 19.3568 26.9883C19.3568 30.1312 21.5358 32.7652 24.4656 33.4618C24.9614 33.5796 25.4786 33.642 26.0105 33.642C27.9109 33.642 29.6253 32.8453 30.8377 31.5676C31.7392 30.6177 32.3632 29.4019 32.58 28.05C32.6354 27.7043 32.6642 27.3496 32.6642 26.9883C32.6642 26.2883 32.6561 25.5463 33.0847 24.9929C33.6813 24.2226 34.6152 23.7267 35.6649 23.7267C37.4663 23.7267 38.9265 25.187 38.9265 26.9883C38.9265 29.3441 38.3022 31.5541 37.2098 33.4618C35.775 35.9676 33.5327 37.9519 30.8377 39.0599C29.6731 39.5387 28.4239 39.8539 27.1188 39.9768C26.7111 40.0152 26.2978 40.0348 25.88 40.0348Z" fill="url(#paint0_radial_4080_34592)"/>
<path d="M35.7954 13.9418C43.0008 13.9418 48.8419 19.7829 48.8419 26.9883C48.8419 34.1937 43.0008 40.0348 35.7954 40.0348C35.4238 40.0348 35.3117 39.5462 35.6229 39.3431C39.6543 36.7121 42.3186 32.1614 42.3186 26.9883C42.3186 23.8454 40.1396 21.2114 37.2098 20.5149C36.714 20.397 36.1968 20.3346 35.6649 20.3346C33.7645 20.3346 32.0502 21.1313 30.8377 22.409C29.9362 23.3589 29.3122 24.5747 29.0954 25.9266C29.04 26.2723 29.0112 26.627 29.0112 26.9883C29.0112 27.6883 29.0193 28.4304 28.5907 28.9837C27.9941 29.754 27.0602 30.2499 26.0105 30.2499C24.2091 30.2499 22.7489 28.7897 22.7489 26.9883C22.7489 24.6325 23.3733 22.4225 24.4656 20.5149C25.9004 18.009 28.1427 16.0247 30.8377 14.9167C32.0023 14.4379 33.2515 14.1228 34.5566 13.9998C34.9643 13.9614 35.3776 13.9418 35.7954 13.9418Z" fill="url(#paint1_radial_4080_34592)"/>
<path d="M66.4903 39.4764C64.8912 39.4764 63.4405 39.2706 62.1383 38.8588C60.8589 38.4241 59.7624 37.795 58.8485 36.9714C57.9576 36.125 57.2608 35.0727 56.7582 33.8144C56.2784 32.5562 56.0386 31.0921 56.0386 29.4221V15.6894C56.0386 15.314 56.3428 15.0098 56.7182 15.0098H61.5272C61.9025 15.0098 62.2068 15.314 62.2068 15.6894V28.7015C62.2068 30.5545 62.5267 31.9614 63.1663 32.9223C63.806 33.8602 64.914 34.3292 66.4903 34.3292C68.1124 34.3292 69.2318 33.8602 69.8486 32.9223C70.4654 31.9614 70.7739 30.566 70.7739 28.7358V15.6894C70.7739 15.314 71.0781 15.0098 71.4535 15.0098H76.2625C76.6378 15.0098 76.9421 15.314 76.9421 15.6894V29.4221C76.9421 31.0921 76.7022 32.5562 76.2225 33.8144C75.7427 35.0727 75.046 36.125 74.1321 36.9714C73.2412 37.795 72.1446 38.4241 70.8424 38.8588C69.5631 39.2706 68.1124 39.4764 66.4903 39.4764Z" fill="url(#paint2_radial_4080_34592)"/>
<path d="M79.7453 15.6894C79.7453 15.314 80.0496 15.0098 80.4249 15.0098H85.6473C85.896 15.0098 86.1248 15.1456 86.2439 15.3638L92.6987 27.1916L99.0855 15.3664C99.2042 15.1467 99.4338 15.0098 99.6835 15.0098H104.767C105.142 15.0098 105.446 15.314 105.446 15.6894V38.3507C105.446 38.7261 105.142 39.0303 104.767 39.0303H99.9578C99.5825 39.0303 99.2782 38.7261 99.2782 38.3507V25.27L94.5299 33.9924C94.3939 34.2423 94.1322 34.3978 93.8478 34.3978H91.344C91.0595 34.3978 90.7978 34.2423 90.6618 33.9924L85.9136 25.27V38.3507C85.9136 38.7261 85.6093 39.0303 85.234 39.0303H80.4249C80.0496 39.0303 79.7453 38.7261 79.7453 38.3507V15.6894Z" fill="url(#paint3_radial_4080_34592)"/>
<path d="M122.466 34.4321H114.447L112.963 38.5796C112.867 38.85 112.61 39.0303 112.323 39.0303H107.947C107.475 39.0303 107.147 38.5616 107.308 38.1184L115.552 15.457C115.65 15.1885 115.905 15.0098 116.191 15.0098H121.407C121.693 15.0098 121.948 15.1885 122.046 15.457L130.29 38.1184C130.451 38.5616 130.123 39.0303 129.651 39.0303H124.589C124.302 39.0303 124.046 38.8499 123.949 38.5796L122.466 34.4321ZM116.195 29.6966H120.718L118.456 22.5591L116.195 29.6966Z" fill="url(#paint4_radial_4080_34592)"/>
<path d="M132.236 15.6894C132.236 15.314 132.541 15.0098 132.916 15.0098H142.003C145.338 15.0098 147.794 15.7418 149.371 17.2059C150.97 18.6472 151.769 20.6489 151.769 23.2111C151.769 25.7733 150.97 27.7864 149.371 29.2505C147.794 30.6918 145.338 31.4124 142.003 31.4124H138.405V38.3507C138.405 38.7261 138.1 39.0303 137.725 39.0303H132.916C132.541 39.0303 132.236 38.7261 132.236 38.3507V15.6894ZM141.318 26.3338C142.894 26.3338 144.002 26.0707 144.642 25.5445C145.281 25.0183 145.601 24.2405 145.601 23.2111C145.601 22.1816 145.281 21.4038 144.642 20.8776C144.002 20.3515 142.894 20.0884 141.318 20.0884H138.405V26.3338H141.318Z" fill="url(#paint5_radial_4080_34592)"/>
</g>
<defs>
<filter id="filter0_b_4080_34592" x="-2" y="-2" width="168" height="58" filterUnits="userSpaceOnUse" color-interpolation-filters="sRGB">
<feFlood flood-opacity="0" result="BackgroundImageFix"/>
<feGaussianBlur in="BackgroundImageFix" stdDeviation="1"/>
<feComposite in2="SourceAlpha" operator="in" result="effect1_backgroundBlur_4080_34592"/>
<feBlend mode="normal" in="SourceGraphic" in2="effect1_backgroundBlur_4080_34592" result="shape"/>
</filter>
<radialGradient id="paint0_radial_4080_34592" cx="0" cy="0" r="1" gradientUnits="userSpaceOnUse" gradientTransform="translate(12.5229 14) rotate(11.6485) scale(165.922 75.9809)">
<stop stop-color="#12DC76"/>
<stop offset="0.546479" stop-color="#1493AE"/>
<stop offset="1" stop-color="#167EDD"/>
</radialGradient>
<radialGradient id="paint1_radial_4080_34592" cx="0" cy="0" r="1" gradientUnits="userSpaceOnUse" gradientTransform="translate(12.5229 14) rotate(11.6485) scale(165.922 75.9809)">
<stop stop-color="#12DC76"/>
<stop offset="0.546479" stop-color="#1493AE"/>
<stop offset="1" stop-color="#167EDD"/>
</radialGradient>
<radialGradient id="paint2_radial_4080_34592" cx="0" cy="0" r="1" gradientUnits="userSpaceOnUse" gradientTransform="translate(12.5229 14) rotate(11.6485) scale(165.922 75.9809)">
<stop stop-color="#12DC76"/>
<stop offset="0.546479" stop-color="#1493AE"/>
<stop offset="1" stop-color="#167EDD"/>
</radialGradient>
<radialGradient id="paint3_radial_4080_34592" cx="0" cy="0" r="1" gradientUnits="userSpaceOnUse" gradientTransform="translate(12.5229 14) rotate(11.6485) scale(165.922 75.9809)">
<stop stop-color="#12DC76"/>
<stop offset="0.546479" stop-color="#1493AE"/>
<stop offset="1" stop-color="#167EDD"/>
</radialGradient>
<radialGradient id="paint4_radial_4080_34592" cx="0" cy="0" r="1" gradientUnits="userSpaceOnUse" gradientTransform="translate(12.5229 14) rotate(11.6485) scale(165.922 75.9809)">
<stop stop-color="#12DC76"/>
<stop offset="0.546479" stop-color="#1493AE"/>
<stop offset="1" stop-color="#167EDD"/>
</radialGradient>
<radialGradient id="paint5_radial_4080_34592" cx="0" cy="0" r="1" gradientUnits="userSpaceOnUse" gradientTransform="translate(12.5229 14) rotate(11.6485) scale(165.922 75.9809)">
<stop stop-color="#12DC76"/>
<stop offset="0.546479" stop-color="#1493AE"/>
<stop offset="1" stop-color="#167EDD"/>
</radialGradient>
</defs>
</svg>
